<svg xmlns="http://www.w3.org/2000/svg" viewBox="0 0 64 64"><defs><style>.cls-2{fill:#8bc4ff}.cls-3{fill:#2e58ff}</style></defs><g id="Headphone_question" data-name="Headphone question"><circle cx="32" cy="36" r="18" style="fill:#d1e7ff"/><path class="cls-2" d="M50 48h-2V24h2a12 12 0 0 1 0 24zM14 48h2V24h-2a12 12 0 0 0 0 24z"/><circle class="cls-3" cx="33" cy="46" r="2"/><path class="cls-3" d="M55 22.92a23 23 0 0 0-46 0A14 14 0 0 0 14 50c1.92 0 2.57.14 3.28-.47a20 20 0 0 0 29.44 0c.76.65 1.54.47 3.28.47h1v6a4 4 0 0 1-4 4H33a2 2 0 0 0 0 4h14a8 8 0 0 0 8-8v-6.93c12-4.57 12-21.55 0-26.15zM32 4a19 19 0 0 1 19 18h-1c-1.92 0-2.57-.14-3.28.47a20 20 0 0 0-29.44 0c-.76-.65-1.54-.47-3.28-.47h-1A19 19 0 0 1 32 4zM14 46a10 10 0 0 1 0-20zm4-2.27V28.27a16 16 0 0 1 28 0v15.46a16 16 0 0 1-28 0zM50 46V26a10 10 0 0 1 0 20z"/><path class="cls-3" d="M33.49 24.16a7 7 0 0 0-8.34 8.27 2 2 0 1 0 3.9-.86 3 3 0 1 1 4.72 1.85A6.94 6.94 0 0 0 31 39a2 2 0 0 0 4 0 2.9 2.9 0 0 1 1.13-2.35 7 7 0 0 0-2.64-12.49z"/></g></svg>