<svg xmlns="http://www.w3.org/2000/svg" viewBox="0 0 512 512" style="enable-background:new 0 0 512 512" xml:space="preserve"><circle style="fill:#ff507d" cx="256" cy="256" r="247.409"/><path style="fill:#d23c69" d="M310.98 448.43c-136.64 0-247.41-110.77-247.41-247.41 0-54.288 17.532-104.456 47.177-145.252C48.862 100.739 8.591 173.648 8.591 256c0 136.64 110.77 247.409 247.409 247.409 82.352 0 155.261-40.272 200.233-102.157-40.797 29.646-90.965 47.178-145.253 47.178z"/><circle style="fill:#fff" cx="256" cy="411.776" r="18.327"/><path style="fill:#fff" d="M338.47 219.347c0-45.546-36.924-82.47-82.47-82.47-45.472 0-82.47 36.993-82.47 82.47 0 10.121-8.206 18.327-18.327 18.327s-18.327-8.206-18.327-18.327c0-65.683 53.436-119.123 119.123-119.123s119.123 53.44 119.123 119.123c0 59.454-43.781 108.877-100.796 117.718v1.405c0 10.121-8.206 18.327-18.327 18.327s-18.327-8.206-18.327-18.327v-18.327c0-10.121 8.206-18.327 18.327-18.327 45.473.001 82.471-36.993 82.471-82.469z"/><path d="M437.02 74.98C388.668 26.629 324.38 0 256 0S123.332 26.629 74.98 74.98C26.629 123.332 0 187.62 0 256s26.629 132.668 74.98 181.02C123.332 485.371 187.62 512 256 512s132.668-26.629 181.02-74.98C485.371 388.668 512 324.38 512 256s-26.629-132.668-74.98-181.02zM256 494.819C124.315 494.819 17.181 387.685 17.181 256S124.315 17.181 256 17.181 494.819 124.315 494.819 256 387.685 494.819 256 494.819z"/><path d="M256 91.633c-70.421 0-127.714 57.292-127.714 127.714 0 14.842 12.075 26.917 26.917 26.917 14.842 0 26.917-12.075 26.917-26.917 0-40.737 33.143-73.879 73.879-73.879a73.579 73.579 0 0 1 38.847 11.061 8.59 8.59 0 0 0 11.83-2.767 8.59 8.59 0 0 0-2.767-11.83A90.75 90.75 0 0 0 256 128.287c-50.21 0-91.06 40.85-91.06 91.06 0 5.369-4.367 9.736-9.736 9.736-5.369 0-9.736-4.367-9.736-9.736 0-60.947 49.585-110.532 110.532-110.532S366.532 158.4 366.532 219.347c0 26.499-9.562 52.147-26.924 72.218-17.189 19.873-40.841 33.017-66.599 37.011a8.592 8.592 0 0 0-7.275 8.49v1.405c0 5.369-4.367 9.736-9.736 9.736-5.369 0-9.736-4.367-9.736-9.736v-18.327c0-5.369 4.367-9.736 9.736-9.736 50.21 0 91.06-40.85 91.06-91.06 0-17.978-5.255-35.381-15.2-50.326a8.59 8.59 0 0 0-14.304 9.518c8.063 12.114 12.323 26.225 12.323 40.807 0 40.737-33.143 73.879-73.879 73.879-14.842 0-26.917 12.075-26.917 26.917v18.327c0 14.842 12.075 26.917 26.917 26.917 12.825 0 23.585-9.016 26.272-21.044 27.189-5.719 51.963-20.304 70.331-41.538 20.062-23.192 31.111-52.832 31.111-83.458.002-70.421-57.291-127.714-127.712-127.714zM256 384.859c-14.842 0-26.917 12.075-26.917 26.917 0 14.842 12.075 26.917 26.917 26.917s26.917-12.075 26.917-26.917c0-14.842-12.075-26.917-26.917-26.917zm0 36.653c-5.369 0-9.736-4.367-9.736-9.736 0-5.369 4.367-9.736 9.736-9.736 5.369 0 9.736 4.367 9.736 9.736 0 5.369-4.367 9.736-9.736 9.736z"/></svg>